<svg width="1200" height="630" viewBox="0 0 1200 630" fill="none" xmlns="http://www.w3.org/2000/svg" role="img" aria-labelledby="title desc">
  <title id="title">Credencial Online</title>
  <desc id="desc">Imagem padrão da Credencial Online com credencial, calendário e elementos de negócios.</desc>
  <rect width="1200" height="630" fill="#F8FBFF"/>
  <rect x="0" y="0" width="1200" height="630" fill="url(#grid)" opacity="0.42"/>
  <rect x="86" y="78" width="360" height="470" rx="28" fill="#0F172A"/>
  <rect x="138" y="130" width="256" height="338" rx="24" fill="#FFFFFF"/>
  <rect x="210" y="104" width="112" height="50" rx="25" fill="#F59E0B"/>
  <circle cx="222" cy="228" r="34" fill="#16A34A"/>
  <path d="M180 314h170M180 360h132" stroke="#075985" stroke-width="18" stroke-linecap="round"/>
  <rect x="570" y="155" width="410" height="78" rx="18" fill="#E0F2FE"/>
  <rect x="570" y="265" width="520" height="78" rx="18" fill="#FFFBEB"/>
  <rect x="570" y="375" width="340" height="78" rx="18" fill="#DCFCE7"/>
  <text x="560" y="142" fill="#0F172A" font-family="Inter, Arial, sans-serif" font-size="82" font-weight="950">Credencial</text>
  <text x="565" y="520" fill="#075985" font-family="Inter, Arial, sans-serif" font-size="62" font-weight="900">Online</text>
  <text x="570" y="213" fill="#0F172A" font-family="Inter, Arial, sans-serif" font-size="31" font-weight="800">eventos com público</text>
  <text x="570" y="323" fill="#0F172A" font-family="Inter, Arial, sans-serif" font-size="31" font-weight="800">negócios em destaque</text>
  <text x="570" y="433" fill="#0F172A" font-family="Inter, Arial, sans-serif" font-size="31" font-weight="800">divulgação profissional</text>
  <defs>
    <pattern id="grid" width="42" height="42" patternUnits="userSpaceOnUse">
      <path d="M42 0H0V42" stroke="#075985" stroke-width="1"/>
    </pattern>
  </defs>
</svg>
